# xmcd
#
# Track frame offsets: 
#        150
#        10545
#        21332
#        33765
#        47667
#        58657
#        72600
#        85860
#        99027
#        111037
#        126032
#        139902
#        152475
#        165625
#        177470
#        190470
#        201907
#        214042
#        225000
#
# Disc length: 3144 seconds
#
# Revision: 0
# Processed by: cddbd v1.5.2PL0 Copyright (c) Steve Scherf et al.
# Submitted via: ExactAudioCopyFreeDBPlugin 1.0
#
DISCID=f40c4613
DTITLE=Sonny Terry and Brownie McGhee - Wailin' The Blues
DYEAR=1995
DGENRE=Blues
TTITLE0=Dangerous Woman
TTITLE1=Stranger Blues
TTITLE2=I Don't Worry
TTITLE3=Man Ain't Nothin 'but A Fool
TTITLE4=Baby Let's Have Some Fun
TTITLE5=Four O' Clock Blues
TTITLE6=Lonesome room
TTITLE7=No Love Blues
TTITLE8=Wine Headed Woman
TTITLE9=Bad Luck Blues
TTITLE10=News For You Baby
TTITLE11=Women Is Killin'me
TTITLE12=Harmonica Train
TTITLE13=Harmonica Hop
TTITLE14=Doggin'my Heart Around
TTITLE15=Sonny Is Drinking
TTITLE16=I'm Gonna Rock Your Wig
TTITLE17=Dangerous Woman
TTITLE18=I Love You Baby
EXTD=
EXTT0=
EXTT1=
EXTT2=
EXTT3=
EXTT4=
EXTT5=
EXTT6=
EXTT7=
EXTT8=
EXTT9=
EXTT10=
EXTT11=
EXTT12=
EXTT13=
EXTT14=
EXTT15=
EXTT16=
EXTT17=
EXTT18=
PLAYORDER=
